<svg xmlns="http://www.w3.org/2000/svg" viewBox="0 0 456.84 457.94"><defs><style>.cls-1{fill:#eee;}</style></defs><g id="Layer_2" data-name="Layer 2"><g id="Layer_1-2" data-name="Layer 1"><path class="cls-1" d="M241.56,19.1c86.64,0,161.62,48.55,197.73,119.2A229,229,0,0,0,229,0C102.51,0,0,102.51,0,229,0,344.59,85.69,440.19,197,455.73a231.37,231.37,0,0,0,71.19-1.15v-7.92a230,230,0,0,1-26.66,1.55,227.37,227.37,0,0,1-44.45-4.36C96.55,423.86,20.9,337.34,20.9,233.65,20.9,115.16,119.69,19.1,241.56,19.1Zm26.66,276V443.33a205.17,205.17,0,0,0,88.21-28H335V380.45h34.87V409.5q7.05-5.52,13.65-11.56c1.09-1,2.16-2,3.23-3v-99.8ZM320,415.33H285.09V380.45H320Zm0-53.07H285.09V327.39H320Zm15,0V327.39h34.87v34.87Z"/><path class="cls-1" d="M369.84,408.25v1.25q-3.84,3-7.81,5.83a227.65,227.65,0,0,1-93.81,39.25v-7.92A223.36,223.36,0,0,0,359,415.33Q364.54,411.94,369.84,408.25Z"/><path class="cls-1" d="M198.28,272.64l-1.12,164.18C109.37,413,44.79,332.76,44.79,237.43c0-114.09,92.49-206.57,206.58-206.57,94.52,0,174.22,63.48,198.77,150.14L331.78,64.14,122.53,272.64h53.25l156-157.5v27.75Z"/><path class="cls-1" d="M268.22,295.14V443.33a205.17,205.17,0,0,0,88.21-28H335V380.45h34.87v27.8q7-4.89,13.65-10.31c1.09-.88,2.16-1.77,3.23-2.69V295.14ZM320,415.33H285.09V380.45H320Zm0-53.07H285.09V327.39H320Zm15,0V327.39h34.87v34.87Z"/><path class="cls-1" d="M331.78,64.14,122.53,272.64h53.25l156-157.5v27.75L198.28,272.64l-1.12,164.18C109.37,413,44.79,332.76,44.79,237.43c0-114.09,92.49-206.57,206.58-206.57,94.52,0,174.22,63.48,198.77,150.14Z"/><path class="cls-1" d="M456.84,186.35l-3.37-2.68a226.92,226.92,0,0,0-14.16-45.34A208.75,208.75,0,0,1,456.84,186.35Z"/><path class="cls-1" d="M268.22,295.14V443.33a205.17,205.17,0,0,0,88.21-28H335V380.45h34.87v26.23a205.08,205.08,0,0,0,16.88-13.19V295.14ZM320,415.33H285.09V380.45H320Zm0-53.07H285.09V327.39H320Zm49.87,0H335V327.39h34.87Z"/><path class="cls-1" d="M331.78,64.14,122.53,272.64h53.25l156-157.5v27.75L198.28,272.64l-1.12,164.18C109.37,413,44.79,332.76,44.79,237.43c0-114.09,92.49-206.57,206.58-206.57,94.52,0,174.22,63.48,198.77,150.14Z"/><path class="cls-1" d="M268.22,295.14V443.33a205.17,205.17,0,0,0,88.21-28H335V380.45h34.87V409.5q7.05-5.52,13.65-11.56c1.09-.88,2.16-1.77,3.23-2.69V295.14ZM320,415.33H285.09V380.45H320Zm0-53.07H285.09V327.39H320Zm15,0V327.39h34.87v34.87Z"/><path class="cls-1" d="M241.56,448.21a227.37,227.37,0,0,1-44.45-4.36L197,455.73a231.37,231.37,0,0,0,71.19-1.15v-7.92A230,230,0,0,1,241.56,448.21Zm26.66-153.07V443.33a205.17,205.17,0,0,0,88.21-28H335V380.45h34.87V409.5q7.05-5.52,13.65-11.56c1.09-.88,2.16-1.77,3.23-2.69V295.14ZM320,415.33H285.09V380.45H320Zm0-53.07H285.09V327.39H320Zm15,0V327.39h34.87v34.87Z"/></g></g></svg>