<svg xmlns="http://www.w3.org/2000/svg" viewBox="0 0 1002.49 457.94"><defs><style>.cls-1,.cls-2,.cls-6{fill:#eee;}.cls-2{font-size:78.78px;font-family:TimesNewRomanPSMT, Times New Roman;letter-spacing:0.07em;}.cls-3{letter-spacing:-0.01em;}.cls-4{letter-spacing:0.07em;}.cls-5{letter-spacing:0.03em;}.cls-6{font-size:31.61px;font-family:TimesNewRomanPS-BoldItalicMT, Times New Roman;font-weight:700;font-style:italic;letter-spacing:0.01em;}</style></defs><g id="Layer_2" data-name="Layer 2"><g id="Layer_1-2" data-name="Layer 1"><path class="cls-1" d="M241.56,19.1c86.64,0,161.62,48.55,197.73,119.2A229,229,0,0,0,229,0C102.51,0,0,102.51,0,229,0,344.59,85.69,440.19,197,455.73a231.37,231.37,0,0,0,71.19-1.15v-7.92a230,230,0,0,1-26.66,1.55,227.37,227.37,0,0,1-44.45-4.36C96.55,423.86,20.9,337.34,20.9,233.65,20.9,115.16,119.69,19.1,241.56,19.1Zm26.66,276V443.33a205.17,205.17,0,0,0,88.21-28H335V380.45h34.87V409.5q7.05-5.52,13.65-11.56c1.09-1,2.16-2,3.23-3v-99.8ZM320,415.33H285.09V380.45H320Zm0-53.07H285.09V327.39H320Zm15,0V327.39h34.87v34.87Z"/><path class="cls-1" d="M369.84,408.25v1.25q-3.84,3-7.81,5.83a227.65,227.65,0,0,1-93.81,39.25v-7.92A223.36,223.36,0,0,0,359,415.33Q364.54,411.94,369.84,408.25Z"/><path class="cls-1" d="M198.28,272.64l-1.12,164.18C109.37,413,44.79,332.76,44.79,237.43c0-114.09,92.49-206.57,206.58-206.57,94.52,0,174.22,63.48,198.77,150.14L331.78,64.14,122.53,272.64h53.25l156-157.5v27.75Z"/><path class="cls-1" d="M268.22,295.14V443.33a205.17,205.17,0,0,0,88.21-28H335V380.45h34.87v27.8q7-4.89,13.65-10.31c1.09-.88,2.16-1.77,3.23-2.69V295.14ZM320,415.33H285.09V380.45H320Zm0-53.07H285.09V327.39H320Zm15,0V327.39h34.87v34.87Z"/><path class="cls-1" d="M331.78,64.14,122.53,272.64h53.25l156-157.5v27.75L198.28,272.64l-1.12,164.18C109.37,413,44.79,332.76,44.79,237.43c0-114.09,92.49-206.57,206.58-206.57,94.52,0,174.22,63.48,198.77,150.14Z"/><path class="cls-1" d="M456.84,186.35l-3.37-2.68a226.92,226.92,0,0,0-14.16-45.34A208.75,208.75,0,0,1,456.84,186.35Z"/><path class="cls-1" d="M268.22,295.14V443.33a205.17,205.17,0,0,0,88.21-28H335V380.45h34.87v26.23a205.08,205.08,0,0,0,16.88-13.19V295.14ZM320,415.33H285.09V380.45H320Zm0-53.07H285.09V327.39H320Zm49.87,0H335V327.39h34.87Z"/><path class="cls-1" d="M331.78,64.14,122.53,272.64h53.25l156-157.5v27.75L198.28,272.64l-1.12,164.18C109.37,413,44.79,332.76,44.79,237.43c0-114.09,92.49-206.57,206.58-206.57,94.52,0,174.22,63.48,198.77,150.14Z"/><path class="cls-1" d="M268.22,295.14V443.33a205.17,205.17,0,0,0,88.21-28H335V380.45h34.87V409.5q7.05-5.52,13.65-11.56c1.09-.88,2.16-1.77,3.23-2.69V295.14ZM320,415.33H285.09V380.45H320Zm0-53.07H285.09V327.39H320Zm15,0V327.39h34.87v34.87Z"/><path class="cls-1" d="M241.56,448.21a227.37,227.37,0,0,1-44.45-4.36L197,455.73a231.37,231.37,0,0,0,71.19-1.15v-7.92A230,230,0,0,1,241.56,448.21Zm26.66-153.07V443.33a205.17,205.17,0,0,0,88.21-28H335V380.45h34.87V409.5q7.05-5.52,13.65-11.56c1.09-.88,2.16-1.77,3.23-2.69V295.14ZM320,415.33H285.09V380.45H320Zm0-53.07H285.09V327.39H320Zm15,0V327.39h34.87v34.87Z"/><path class="cls-1" d="M439.07,234.86c.78,1.37,9.89-4.75,10.77-5.53a24.2,24.2,0,0,0,6.36-9c3.07-7.59,2.84-17.13-2.33-23.77A19.77,19.77,0,0,0,443,189.36q-6.56-1.71-17.72-1.71H397.66v10.82h9l-1,63.86h-9v10.83h32.52V262.33H419v-25.6h7.36l20,36.43h19V262.33H454.57Zm-14.77-9H419l1-27.44h6.23a49.79,49.79,0,0,1,10.31.78c3.9.89,6.39,4.13,7.33,7.9,1.65,6.6-1.27,15.85-8.45,17.8A46.39,46.39,0,0,1,424.3,225.91Z"/><polygon class="cls-1" points="620.94 197.47 630.4 197.47 630.4 262.33 620.94 262.33 620.94 273.15 653.11 273.15 653.11 262.33 643.65 262.33 643.65 197.47 653.11 197.47 653.11 186.65 620.94 186.65 620.94 197.47"/><path class="cls-1" d="M715.45,196.41h10.46v-9.76H683.13v9.76h10.11l-22.85,65.92H660.26v10.83h33V262.33h-9.17l5.4-15.59h27.15l6.23,15.59h-8.41v10.83h33.79V262.33h-9.36Zm-22.86,40.2,11.16-38.68,10.72,38.68Z"/><polygon class="cls-1" points="813.55 198.47 821.98 198.47 821.98 253.89 780.49 187.65 757.54 187.65 757.54 198.47 766.09 198.47 766.09 262.33 757.54 262.33 757.54 273.15 789.49 273.15 789.49 262.33 777.94 262.33 777.94 209.19 819.04 274.03 833.64 274.03 833.64 198.47 841.57 198.47 841.57 187.65 813.55 187.65 813.55 198.47"/><polygon class="cls-1" points="528.4 262.33 499.93 262.33 499.93 234.04 518.91 234.04 518.91 243.81 528.98 243.81 528.98 215.8 518.91 215.8 518.91 223.22 499.93 223.22 499.93 198.47 525.4 198.47 525.4 210.71 536.25 210.71 536.25 187.65 477.33 187.65 477.33 198.47 486.68 198.47 486.68 262.33 477.33 262.33 477.33 273.15 539.25 273.15 539.25 252.6 528.4 252.6 528.4 262.33"/><polygon class="cls-1" points="991.64 252.6 991.64 262.33 963.17 262.33 963.17 234.04 982.15 234.04 982.15 243.81 992.22 243.81 992.22 215.8 982.15 215.8 982.15 223.22 963.17 223.22 963.17 198.47 988.64 198.47 988.64 210.71 999.49 210.71 999.49 187.65 940.57 187.65 940.57 198.47 949.92 198.47 949.92 262.33 940.57 262.33 940.57 273.15 1002.49 273.15 1002.49 252.6 991.64 252.6"/><polygon class="cls-1" points="600.34 253.75 600.34 262.33 575.47 262.33 575.47 198.47 586.25 198.47 586.25 187.65 550.36 187.65 550.36 198.47 561.72 198.47 561.72 262.33 550.36 262.33 550.36 273.15 600.34 273.15 600.34 281.76 612.7 281.76 612.7 273.15 612.7 253.75 612.7 252.92 600.34 252.92 600.34 253.75"/><path class="cls-1" d="M912.55,188.57v.13a45.75,45.75,0,0,0-10.47-2.61c-25.84-3.38-45.17,20.15-45.17,44.49a45.81,45.81,0,0,0,1.15,10c2.93,13,11.24,26,23.89,31.42a43.78,43.78,0,0,0,30.68,1.41,37.54,37.54,0,0,0,9.21-4.52c.58-.4,1.15-.8,1.71-1.24V249.84h-11v9.91c-3.09,1.65-6.52,1.78-10.16,2.63-22.17,5.11-33.67-21.21-30.35-39.68,2-11.2,8.57-22.64,20.45-25.22,7-1.52,13.44.7,19.42,4.22.21.12.43.26.64.4v12.74h11V194.71A41.63,41.63,0,0,0,912.55,188.57Z"/><text class="cls-2" transform="translate(396.29 364.19)">ME<tspan class="cls-3" x="128.88" y="0">T</tspan><tspan class="cls-4" x="176.04" y="0">A</tspan><tspan class="cls-5" x="238.29" y="0">L</tspan><tspan x="288.84" y="0" xml:space="preserve"> HOUSE</tspan></text><text class="cls-6" transform="translate(577.02 426.34)">...Budget Friendly</text></g></g></svg>