<svg xmlns="http://www.w3.org/2000/svg" viewBox="0 0 614.89 280.89"><defs><style>.cls-1{fill:#d6b33e;}.cls-2,.cls-3,.cls-6{fill:#fff;}.cls-3{font-size:48.32px;font-family:TimesNewRomanPSMT, Times New Roman;letter-spacing:0.07em;}.cls-4{letter-spacing:-0.01em;}.cls-5{letter-spacing:0.03em;}.cls-6{font-size:19.39px;font-family:TimesNewRomanPS-BoldItalicMT, Times New Roman;font-weight:700;font-style:italic;letter-spacing:0.01em;}</style></defs><g id="Layer_2" data-name="Layer 2"><g id="Layer_1-2" data-name="Layer 1"><path class="cls-1" d="M148.16,11.72c53.15,0,99.14,29.77,121.29,73.11a140.44,140.44,0,1,0-104.93,194V274a142.34,142.34,0,0,1-16.36.95,139,139,0,0,1-27.26-2.68C59.22,260,12.82,206.91,12.82,143.31,12.82,70.64,73.41,11.72,148.16,11.72ZM164.52,181v90.89a125.73,125.73,0,0,0,54.1-17.17H205.46V233.36h21.39v17.81q4.32-3.37,8.37-7.09c.67-.6,1.32-1.22,2-1.84V181Zm31.74,73.72h-21.4V233.36h21.4Zm0-32.55h-21.4V200.81h21.4Zm9.2,0V200.81h21.39V222.2Z"/><path class="cls-1" d="M226.85,250.41v.76c-1.57,1.22-3.17,2.42-4.79,3.58a139.53,139.53,0,0,1-57.54,24.07V274a137.15,137.15,0,0,0,55.68-19.22C222.46,253.36,224.68,251.92,226.85,250.41Z"/><path class="cls-1" d="M121.62,167.23l-.69,100.7A126.72,126.72,0,1,1,276.1,111L203.5,39.34,75.16,167.23h32.66L203.5,70.62v17Z"/><path class="cls-1" d="M164.52,181v90.89a125.73,125.73,0,0,0,54.1-17.17H205.46V233.36h21.39v17c2.87-2,5.67-4.11,8.37-6.33.67-.54,1.32-1.08,2-1.65V181Zm31.74,73.72h-21.4V233.36h21.4Zm0-32.55h-21.4V200.81h21.4Zm9.2,0V200.81h21.39V222.2Z"/><path class="cls-1" d="M203.5,39.34,75.16,167.23h32.66L203.5,70.62v17l-81.88,79.59-.69,100.7A126.72,126.72,0,1,1,276.1,111Z"/><path class="cls-1" d="M280.21,114.3l-2.07-1.64a138.93,138.93,0,0,0-8.68-27.81A128,128,0,0,1,280.21,114.3Z"/><path class="cls-1" d="M164.52,181v90.89a125.73,125.73,0,0,0,54.1-17.17H205.46V233.36h21.39v16.08a124.54,124.54,0,0,0,10.35-8.09V181Zm31.74,73.72h-21.4V233.36h21.4Zm0-32.55h-21.4V200.81h21.4Zm30.59,0H205.46V200.81h21.39Z"/><path class="cls-1" d="M203.5,39.34,75.16,167.23h32.66L203.5,70.62v17l-81.88,79.59-.69,100.7A126.72,126.72,0,1,1,276.1,111Z"/><path class="cls-1" d="M164.52,181v90.89a125.73,125.73,0,0,0,54.1-17.17H205.46V233.36h21.39v17.81q4.32-3.37,8.37-7.09c.67-.54,1.32-1.08,2-1.65V181Zm31.74,73.72h-21.4V233.36h21.4Zm0-32.55h-21.4V200.81h21.4Zm9.2,0V200.81h21.39V222.2Z"/><path class="cls-1" d="M148.16,274.92a139,139,0,0,1-27.26-2.68l-.05,7.29a141.4,141.4,0,0,0,43.67-.71V274A142.34,142.34,0,0,1,148.16,274.92ZM164.52,181v90.89a125.73,125.73,0,0,0,54.1-17.17H205.46V233.36h21.39v17.81q4.32-3.37,8.37-7.09c.67-.54,1.32-1.08,2-1.65V181Zm31.74,73.72h-21.4V233.36h21.4Zm0-32.55h-21.4V200.81h21.4Zm9.2,0V200.81h21.39V222.2Z"/><path class="cls-2" d="M269.31,144.06c.48.84,6.07-2.92,6.61-3.4a14.83,14.83,0,0,0,3.9-5.51c1.88-4.66,1.74-10.51-1.43-14.58a12.13,12.13,0,0,0-6.66-4.42,44.72,44.72,0,0,0-10.87-1.05h-17v6.63h5.55l-.61,39.18H243.3v6.63h19.94v-6.63H257V145.2h4.52l12.25,22.34H285.4v-6.63h-6.58Zm-9.06-5.49H257l.61-16.84h3.82a30.47,30.47,0,0,1,6.33.48,6.23,6.23,0,0,1,4.49,4.85c1,4-.78,9.72-5.18,10.91A27.93,27.93,0,0,1,260.25,138.57Z"/><polygon class="cls-2" points="380.86 121.12 386.67 121.12 386.67 160.91 380.86 160.91 380.86 167.54 400.6 167.54 400.6 160.91 394.79 160.91 394.79 121.12 400.6 121.12 400.6 114.48 380.86 114.48 380.86 121.12"/><path class="cls-2" d="M438.83,120.47h6.42v-6H419v6h6.2l-14,40.44H405v6.63h20.23v-6.63h-5.63l3.32-9.57h16.65l3.82,9.57h-5.16v6.63h20.73v-6.63H453.2Zm-14,24.66,6.85-23.73,6.57,23.73Z"/><polygon class="cls-2" points="499 121.73 504.17 121.73 504.17 155.73 478.73 115.1 464.65 115.1 464.65 121.73 469.89 121.73 469.89 160.91 464.65 160.91 464.65 167.54 484.25 167.54 484.25 160.91 477.16 160.91 477.16 128.31 502.37 168.08 511.32 168.08 511.32 121.73 516.19 121.73 516.19 115.1 499 115.1 499 121.73"/><polygon class="cls-2" points="324.1 160.91 306.64 160.91 306.64 143.55 318.28 143.55 318.28 149.54 324.46 149.54 324.46 132.36 318.28 132.36 318.28 136.91 306.64 136.91 306.64 121.73 322.26 121.73 322.26 129.24 328.92 129.24 328.92 115.1 292.78 115.1 292.78 121.73 298.51 121.73 298.51 160.91 292.78 160.91 292.78 167.54 330.75 167.54 330.75 154.94 324.1 154.94 324.1 160.91"/><polygon class="cls-2" points="608.24 154.94 608.24 160.91 590.78 160.91 590.78 143.55 602.42 143.55 602.42 149.54 608.59 149.54 608.59 132.36 602.42 132.36 602.42 136.91 590.78 136.91 590.78 121.73 606.4 121.73 606.4 129.24 613.05 129.24 613.05 115.1 576.91 115.1 576.91 121.73 582.65 121.73 582.65 160.91 576.91 160.91 576.91 167.54 614.89 167.54 614.89 154.94 608.24 154.94"/><polygon class="cls-2" points="368.23 155.64 368.23 160.91 352.97 160.91 352.97 121.73 359.59 121.73 359.59 115.1 337.57 115.1 337.57 121.73 344.54 121.73 344.54 160.91 337.57 160.91 337.57 167.54 368.23 167.54 368.23 172.82 375.81 172.82 375.81 167.54 375.81 155.64 375.81 155.13 368.23 155.13 368.23 155.64"/><path class="cls-2" d="M559.73,115.66v.08a28.16,28.16,0,0,0-6.43-1.6c-15.85-2.07-27.7,12.36-27.7,27.29a28.38,28.38,0,0,0,.7,6.16c1.8,8,6.9,15.94,14.66,19.27a26.84,26.84,0,0,0,18.81.86,23.17,23.17,0,0,0,5.65-2.77c.36-.24.71-.49,1.05-.76V153.24h-6.74v6.08c-1.9,1-4,1.1-6.24,1.61-13.6,3.14-20.65-13-18.61-24.34,1.23-6.87,5.25-13.88,12.54-15.46,4.29-.94,8.24.42,11.91,2.58l.4.25v7.81h6.74V119.43A25.42,25.42,0,0,0,559.73,115.66Z"/><text class="cls-3" transform="translate(243.07 223.38)">ME<tspan class="cls-4" x="79.05" y="0">T</tspan><tspan x="107.98" y="0">A</tspan><tspan class="cls-5" x="146.16" y="0">L</tspan><tspan x="177.17" y="0" xml:space="preserve"> HOUSE</tspan></text><text class="cls-6" transform="translate(353.92 261.51)">...Budget Friendly</text></g></g></svg>