<svg xmlns="http://www.w3.org/2000/svg" viewBox="0 0 280.21 280.89"><defs><style>.cls-1{fill:#d6b33e;}</style></defs><g id="Layer_2" data-name="Layer 2"><g id="Layer_1-2" data-name="Layer 1"><path class="cls-1" d="M148.16,11.72c53.15,0,99.14,29.77,121.29,73.11a140.44,140.44,0,1,0-104.93,194V274a142.34,142.34,0,0,1-16.36.95,139,139,0,0,1-27.26-2.68C59.22,260,12.82,206.91,12.82,143.31,12.82,70.64,73.41,11.72,148.16,11.72ZM164.52,181v90.89a125.73,125.73,0,0,0,54.1-17.17H205.46V233.36h21.39v17.81q4.32-3.37,8.37-7.09c.67-.6,1.32-1.22,2-1.84V181Zm31.74,73.72h-21.4V233.36h21.4Zm0-32.55h-21.4V200.81h21.4Zm9.2,0V200.81h21.39V222.2Z"/><path class="cls-1" d="M226.85,250.41v.76c-1.57,1.22-3.17,2.42-4.79,3.58a139.53,139.53,0,0,1-57.54,24.07V274a137.15,137.15,0,0,0,55.68-19.22C222.46,253.36,224.68,251.92,226.85,250.41Z"/><path class="cls-1" d="M121.62,167.23l-.69,100.7A126.72,126.72,0,1,1,276.1,111L203.5,39.34,75.16,167.23h32.66L203.5,70.62v17Z"/><path class="cls-1" d="M164.52,181v90.89a125.73,125.73,0,0,0,54.1-17.17H205.46V233.36h21.39v17c2.87-2,5.67-4.11,8.37-6.33.67-.54,1.32-1.08,2-1.65V181Zm31.74,73.72h-21.4V233.36h21.4Zm0-32.55h-21.4V200.81h21.4Zm9.2,0V200.81h21.39V222.2Z"/><path class="cls-1" d="M203.5,39.34,75.16,167.23h32.66L203.5,70.62v17l-81.88,79.59-.69,100.7A126.72,126.72,0,1,1,276.1,111Z"/><path class="cls-1" d="M280.21,114.3l-2.07-1.64a138.93,138.93,0,0,0-8.68-27.81A128,128,0,0,1,280.21,114.3Z"/><path class="cls-1" d="M164.52,181v90.89a125.73,125.73,0,0,0,54.1-17.17H205.46V233.36h21.39v16.08a124.54,124.54,0,0,0,10.35-8.09V181Zm31.74,73.72h-21.4V233.36h21.4Zm0-32.55h-21.4V200.81h21.4Zm30.59,0H205.46V200.81h21.39Z"/><path class="cls-1" d="M203.5,39.34,75.16,167.23h32.66L203.5,70.62v17l-81.88,79.59-.69,100.7A126.72,126.72,0,1,1,276.1,111Z"/><path class="cls-1" d="M164.52,181v90.89a125.73,125.73,0,0,0,54.1-17.17H205.46V233.36h21.39v17.81q4.32-3.37,8.37-7.09c.67-.54,1.32-1.08,2-1.65V181Zm31.74,73.72h-21.4V233.36h21.4Zm0-32.55h-21.4V200.81h21.4Zm9.2,0V200.81h21.39V222.2Z"/><path class="cls-1" d="M148.16,274.92a139,139,0,0,1-27.26-2.68l-.05,7.29a141.4,141.4,0,0,0,43.67-.71V274A142.34,142.34,0,0,1,148.16,274.92ZM164.52,181v90.89a125.73,125.73,0,0,0,54.1-17.17H205.46V233.36h21.39v17.81q4.32-3.37,8.37-7.09c.67-.54,1.32-1.08,2-1.65V181Zm31.74,73.72h-21.4V233.36h21.4Zm0-32.55h-21.4V200.81h21.4Zm9.2,0V200.81h21.39V222.2Z"/></g></g></svg>